<svg xmlns="http://www.w3.org/2000/svg" xmlns:xlink="http://www.w3.org/1999/xlink" width="500" zoomAndPan="magnify" viewBox="0 0 375 374.999991" height="500" preserveAspectRatio="xMidYMid meet" version="1.0"><defs><g/><clipPath id="825593cac0"><path d="M 140.410156 93.070312 L 234.910156 93.070312 L 234.910156 224.320312 L 140.410156 224.320312 Z M 140.410156 93.070312 " clip-rule="nonzero"/></clipPath></defs><g fill="#1f2020" fill-opacity="1"><g transform="translate(71.390647, 257.085187)"><g><path d="M 12.421875 0 L 8.328125 -6.3125 L 5.40625 -6.3125 L 5.40625 0 L 2.5 0 L 2.5 -18.15625 L 7.609375 -18.15625 C 9.628906 -18.15625 11.25 -17.640625 12.46875 -16.609375 C 13.695312 -15.578125 14.3125 -14.144531 14.3125 -12.3125 C 14.3125 -11.195312 14.070312 -10.160156 13.59375 -9.203125 C 13.125 -8.253906 12.382812 -7.519531 11.375 -7 L 15.78125 0 Z M 5.40625 -9.109375 L 8 -9.109375 C 9.164062 -9.109375 10.007812 -9.425781 10.53125 -10.0625 C 11.0625 -10.695312 11.328125 -11.414062 11.328125 -12.21875 C 11.328125 -12.6875 11.222656 -13.15625 11.015625 -13.625 C 10.816406 -14.101562 10.476562 -14.507812 10 -14.84375 C 9.519531 -15.1875 8.890625 -15.359375 8.109375 -15.359375 L 5.40625 -15.359375 Z M 5.40625 -9.109375 "/></g></g></g><g fill="#1f2020" fill-opacity="1"><g transform="translate(91.066538, 257.085187)"><g><path d="M 1.375 -9.046875 C 1.375 -10.710938 1.785156 -12.253906 2.609375 -13.671875 C 3.441406 -15.097656 4.566406 -16.234375 5.984375 -17.078125 C 7.410156 -17.929688 8.960938 -18.359375 10.640625 -18.359375 C 12.304688 -18.359375 13.847656 -17.929688 15.265625 -17.078125 C 16.691406 -16.234375 17.828125 -15.09375 18.671875 -13.65625 C 19.523438 -12.226562 19.953125 -10.691406 19.953125 -9.046875 C 19.953125 -7.367188 19.53125 -5.820312 18.6875 -4.40625 C 17.851562 -3 16.71875 -1.878906 15.28125 -1.046875 C 13.851562 -0.210938 12.304688 0.203125 10.640625 0.203125 C 8.960938 0.203125 7.410156 -0.207031 5.984375 -1.03125 C 4.566406 -1.851562 3.441406 -2.972656 2.609375 -4.390625 C 1.785156 -5.804688 1.375 -7.359375 1.375 -9.046875 Z M 4.359375 -9.046875 C 4.359375 -7.867188 4.640625 -6.789062 5.203125 -5.8125 C 5.773438 -4.832031 6.546875 -4.050781 7.515625 -3.46875 C 8.492188 -2.882812 9.5625 -2.59375 10.71875 -2.59375 C 11.863281 -2.59375 12.910156 -2.878906 13.859375 -3.453125 C 14.804688 -4.023438 15.554688 -4.804688 16.109375 -5.796875 C 16.671875 -6.785156 16.953125 -7.867188 16.953125 -9.046875 C 16.953125 -10.234375 16.671875 -11.320312 16.109375 -12.3125 C 15.546875 -13.3125 14.78125 -14.101562 13.8125 -14.6875 C 12.851562 -15.269531 11.796875 -15.5625 10.640625 -15.5625 C 9.484375 -15.5625 8.425781 -15.269531 7.46875 -14.6875 C 6.507812 -14.101562 5.75 -13.3125 5.1875 -12.3125 C 4.632812 -11.320312 4.359375 -10.234375 4.359375 -9.046875 Z M 4.359375 -9.046875 "/></g></g></g><g fill="#1f2020" fill-opacity="1"><g transform="translate(115.355883, 257.085187)"><g><path d="M 1.375 -9.046875 C 1.375 -10.710938 1.785156 -12.253906 2.609375 -13.671875 C 3.441406 -15.097656 4.566406 -16.234375 5.984375 -17.078125 C 7.410156 -17.929688 8.960938 -18.359375 10.640625 -18.359375 C 12.304688 -18.359375 13.847656 -17.929688 15.265625 -17.078125 C 16.691406 -16.234375 17.828125 -15.09375 18.671875 -13.65625 C 19.523438 -12.226562 19.953125 -10.691406 19.953125 -9.046875 C 19.953125 -7.367188 19.53125 -5.820312 18.6875 -4.40625 C 17.851562 -3 16.71875 -1.878906 15.28125 -1.046875 C 13.851562 -0.210938 12.304688 0.203125 10.640625 0.203125 C 8.960938 0.203125 7.410156 -0.207031 5.984375 -1.03125 C 4.566406 -1.851562 3.441406 -2.972656 2.609375 -4.390625 C 1.785156 -5.804688 1.375 -7.359375 1.375 -9.046875 Z M 4.359375 -9.046875 C 4.359375 -7.867188 4.640625 -6.789062 5.203125 -5.8125 C 5.773438 -4.832031 6.546875 -4.050781 7.515625 -3.46875 C 8.492188 -2.882812 9.5625 -2.59375 10.71875 -2.59375 C 11.863281 -2.59375 12.910156 -2.878906 13.859375 -3.453125 C 14.804688 -4.023438 15.554688 -4.804688 16.109375 -5.796875 C 16.671875 -6.785156 16.953125 -7.867188 16.953125 -9.046875 C 16.953125 -10.234375 16.671875 -11.320312 16.109375 -12.3125 C 15.546875 -13.3125 14.78125 -14.101562 13.8125 -14.6875 C 12.851562 -15.269531 11.796875 -15.5625 10.640625 -15.5625 C 9.484375 -15.5625 8.425781 -15.269531 7.46875 -14.6875 C 6.507812 -14.101562 5.75 -13.3125 5.1875 -12.3125 C 4.632812 -11.320312 4.359375 -10.234375 4.359375 -9.046875 Z M 4.359375 -9.046875 "/></g></g></g><g fill="#1f2020" fill-opacity="1"><g transform="translate(139.645228, 257.085187)"><g><path d="M 13.515625 -18.15625 L 13.515625 -15.359375 L 5.40625 -15.359375 L 5.40625 -10.25 L 12.46875 -10.25 L 12.46875 -7.484375 L 5.40625 -7.484375 L 5.40625 0 L 2.5 0 L 2.5 -18.15625 Z M 13.515625 -18.15625 "/></g></g></g><g fill="#1f2020" fill-opacity="1"><g transform="translate(157.400925, 257.085187)"><g/></g></g><g fill="#1f2020" fill-opacity="1"><g transform="translate(168.348674, 257.085187)"><g><path d="M 20.828125 -18.796875 L 20.828125 0 L 17.9375 0 L 17.9375 -10.5 L 11.578125 -1.46875 L 11.515625 -1.46875 L 5.3125 -10.078125 L 5.3125 0 L 2.5 0 L 2.5 -18.796875 L 2.515625 -18.796875 L 11.578125 -5.984375 L 20.765625 -18.796875 Z M 20.828125 -18.796875 "/></g></g></g><g fill="#1f2020" fill-opacity="1"><g transform="translate(194.633027, 257.085187)"><g><path d="M 11.828125 -4.265625 L 5.21875 -4.265625 L 3.46875 0 L 0.59375 0 L 8.625 -18.90625 L 8.796875 -18.90625 L 16.828125 0 L 13.484375 0 Z M 10.84375 -6.765625 L 8.578125 -12.5 L 6.234375 -6.765625 Z M 10.84375 -6.765625 "/></g></g></g><g fill="#1f2020" fill-opacity="1"><g transform="translate(215.03212, 257.085187)"><g><path d="M 12.015625 -14.46875 C 10.453125 -15.28125 9.066406 -15.6875 7.859375 -15.6875 C 6.960938 -15.6875 6.25 -15.484375 5.71875 -15.078125 C 5.195312 -14.679688 4.9375 -14.132812 4.9375 -13.4375 C 4.9375 -12.757812 5.265625 -12.191406 5.921875 -11.734375 C 6.578125 -11.273438 7.492188 -10.820312 8.671875 -10.375 C 9.578125 -10.0625 10.347656 -9.695312 10.984375 -9.28125 C 11.617188 -8.875 12.144531 -8.320312 12.5625 -7.625 C 12.976562 -6.925781 13.1875 -6.046875 13.1875 -4.984375 C 13.1875 -4.023438 12.945312 -3.15625 12.46875 -2.375 C 11.988281 -1.59375 11.289062 -0.96875 10.375 -0.5 C 9.457031 -0.03125 8.375 0.203125 7.125 0.203125 C 6.03125 0.203125 4.953125 0.03125 3.890625 -0.3125 C 2.828125 -0.65625 1.878906 -1.125 1.046875 -1.71875 L 2.34375 -3.984375 C 2.957031 -3.523438 3.679688 -3.140625 4.515625 -2.828125 C 5.359375 -2.523438 6.140625 -2.375 6.859375 -2.375 C 7.734375 -2.375 8.503906 -2.582031 9.171875 -3 C 9.835938 -3.425781 10.171875 -4.082031 10.171875 -4.96875 C 10.171875 -5.664062 9.890625 -6.242188 9.328125 -6.703125 C 8.773438 -7.171875 8 -7.597656 7 -7.984375 C 5.976562 -8.359375 5.125 -8.734375 4.4375 -9.109375 C 3.757812 -9.484375 3.171875 -10.007812 2.671875 -10.6875 C 2.179688 -11.363281 1.9375 -12.207031 1.9375 -13.21875 C 1.9375 -14.695312 2.441406 -15.890625 3.453125 -16.796875 C 4.460938 -17.703125 5.789062 -18.1875 7.4375 -18.25 C 8.632812 -18.25 9.679688 -18.113281 10.578125 -17.84375 C 11.484375 -17.570312 12.328125 -17.1875 13.109375 -16.6875 Z M 12.015625 -14.46875 "/></g></g></g><g fill="#1f2020" fill-opacity="1"><g transform="translate(232.513507, 257.085187)"><g><path d="M 13.34375 -18.15625 L 13.34375 -15.359375 L 8.65625 -15.359375 L 8.65625 0 L 5.765625 0 L 5.765625 -15.359375 L 1.203125 -15.359375 L 1.203125 -18.15625 Z M 13.34375 -18.15625 "/></g></g></g><g fill="#1f2020" fill-opacity="1"><g transform="translate(250.019842, 257.085187)"><g><path d="M 14.53125 -18.15625 L 14.53125 -15.359375 L 5.40625 -15.359375 L 5.40625 -10.53125 L 13.546875 -10.53125 L 13.546875 -7.734375 L 5.40625 -7.734375 L 5.40625 -2.796875 L 14.890625 -2.796875 L 14.890625 0 L 2.5 0 L 2.5 -18.15625 Z M 14.53125 -18.15625 "/></g></g></g><g fill="#1f2020" fill-opacity="1"><g transform="translate(269.396473, 257.085187)"><g><path d="M 12.421875 0 L 8.328125 -6.3125 L 5.40625 -6.3125 L 5.40625 0 L 2.5 0 L 2.5 -18.15625 L 7.609375 -18.15625 C 9.628906 -18.15625 11.25 -17.640625 12.46875 -16.609375 C 13.695312 -15.578125 14.3125 -14.144531 14.3125 -12.3125 C 14.3125 -11.195312 14.070312 -10.160156 13.59375 -9.203125 C 13.125 -8.253906 12.382812 -7.519531 11.375 -7 L 15.78125 0 Z M 5.40625 -9.109375 L 8 -9.109375 C 9.164062 -9.109375 10.007812 -9.425781 10.53125 -10.0625 C 11.0625 -10.695312 11.328125 -11.414062 11.328125 -12.21875 C 11.328125 -12.6875 11.222656 -13.15625 11.015625 -13.625 C 10.816406 -14.101562 10.476562 -14.507812 10 -14.84375 C 9.519531 -15.1875 8.890625 -15.359375 8.109375 -15.359375 L 5.40625 -15.359375 Z M 5.40625 -9.109375 "/></g></g></g><g fill="#1f2020" fill-opacity="1"><g transform="translate(289.072368, 257.085187)"><g><path d="M 12.015625 -14.46875 C 10.453125 -15.28125 9.066406 -15.6875 7.859375 -15.6875 C 6.960938 -15.6875 6.25 -15.484375 5.71875 -15.078125 C 5.195312 -14.679688 4.9375 -14.132812 4.9375 -13.4375 C 4.9375 -12.757812 5.265625 -12.191406 5.921875 -11.734375 C 6.578125 -11.273438 7.492188 -10.820312 8.671875 -10.375 C 9.578125 -10.0625 10.347656 -9.695312 10.984375 -9.28125 C 11.617188 -8.875 12.144531 -8.320312 12.5625 -7.625 C 12.976562 -6.925781 13.1875 -6.046875 13.1875 -4.984375 C 13.1875 -4.023438 12.945312 -3.15625 12.46875 -2.375 C 11.988281 -1.59375 11.289062 -0.96875 10.375 -0.5 C 9.457031 -0.03125 8.375 0.203125 7.125 0.203125 C 6.03125 0.203125 4.953125 0.03125 3.890625 -0.3125 C 2.828125 -0.65625 1.878906 -1.125 1.046875 -1.71875 L 2.34375 -3.984375 C 2.957031 -3.523438 3.679688 -3.140625 4.515625 -2.828125 C 5.359375 -2.523438 6.140625 -2.375 6.859375 -2.375 C 7.734375 -2.375 8.503906 -2.582031 9.171875 -3 C 9.835938 -3.425781 10.171875 -4.082031 10.171875 -4.96875 C 10.171875 -5.664062 9.890625 -6.242188 9.328125 -6.703125 C 8.773438 -7.171875 8 -7.597656 7 -7.984375 C 5.976562 -8.359375 5.125 -8.734375 4.4375 -9.109375 C 3.757812 -9.484375 3.171875 -10.007812 2.671875 -10.6875 C 2.179688 -11.363281 1.9375 -12.207031 1.9375 -13.21875 C 1.9375 -14.695312 2.441406 -15.890625 3.453125 -16.796875 C 4.460938 -17.703125 5.789062 -18.1875 7.4375 -18.25 C 8.632812 -18.25 9.679688 -18.113281 10.578125 -17.84375 C 11.484375 -17.570312 12.328125 -17.1875 13.109375 -16.6875 Z M 12.015625 -14.46875 "/></g></g></g><g clip-path="url(#825593cac0)"><path fill="#00459a" d="M 144.4375 143.414062 L 156.59375 136.417969 L 156.59375 207.523438 L 163.453125 211.558594 L 167.476562 213.910156 L 175.105469 218.421875 L 179.636719 221.089844 L 185.117188 224.308594 L 201.300781 214.78125 L 201.300781 102.632812 L 185.117188 93.316406 L 184.695312 93.078125 L 179.636719 95.984375 L 163.453125 105.300781 L 163.453125 133.753906 L 162.074219 132.960938 L 158.339844 130.796875 L 156.59375 131.800781 L 140.410156 141.117188 L 140.410156 197.992188 L 144.4375 200.34375 Z M 175.105469 206.597656 L 175.105469 140.457031 L 167.476562 136.046875 L 167.476562 107.621094 L 179.636719 100.628906 L 179.636719 209.265625 Z M 222.117188 125.332031 L 220.371094 126.335938 L 204.1875 135.652344 L 204.1875 213.089844 L 208.1875 210.714844 L 208.1875 137.949219 L 220.371094 130.953125 L 220.371094 203.5625 L 234.910156 195.011719 L 234.910156 132.695312 L 225.851562 127.496094 Z M 222.117188 125.332031 " fill-opacity="1" fill-rule="evenodd"/></g><g fill="#1f2020" fill-opacity="1"><g transform="translate(89.595237, 272.258327)"><g><path d="M 2.125 -5.046875 C 2.695312 -5.046875 3.144531 -4.898438 3.46875 -4.609375 C 3.789062 -4.328125 3.953125 -3.929688 3.953125 -3.421875 C 3.953125 -3.128906 3.894531 -2.859375 3.78125 -2.609375 C 3.664062 -2.359375 3.476562 -2.148438 3.21875 -1.984375 C 2.96875 -1.828125 2.640625 -1.75 2.234375 -1.75 L 1.5 -1.75 L 1.5 0 L 0.6875 0 L 0.6875 -5.046875 Z M 2.234375 -2.53125 C 2.453125 -2.53125 2.628906 -2.578125 2.765625 -2.671875 C 2.898438 -2.765625 3 -2.878906 3.0625 -3.015625 C 3.125 -3.148438 3.15625 -3.28125 3.15625 -3.40625 C 3.15625 -3.625 3.082031 -3.820312 2.9375 -4 C 2.800781 -4.1875 2.570312 -4.28125 2.25 -4.28125 L 1.5 -4.28125 L 1.5 -2.53125 Z M 2.234375 -2.53125 "/></g></g></g><g fill="#1f2020" fill-opacity="1"><g transform="translate(94.660902, 272.258327)"><g><path d="M 3.453125 0 L 2.3125 -1.75 L 1.5 -1.75 L 1.5 0 L 0.6875 0 L 0.6875 -5.046875 L 2.109375 -5.046875 C 2.679688 -5.046875 3.132812 -4.898438 3.46875 -4.609375 C 3.8125 -4.328125 3.984375 -3.929688 3.984375 -3.421875 C 3.984375 -3.117188 3.914062 -2.832031 3.78125 -2.5625 C 3.65625 -2.300781 3.445312 -2.097656 3.15625 -1.953125 L 4.390625 0 Z M 1.5 -2.53125 L 2.234375 -2.53125 C 2.554688 -2.53125 2.789062 -2.617188 2.9375 -2.796875 C 3.082031 -2.972656 3.15625 -3.175781 3.15625 -3.40625 C 3.15625 -3.53125 3.125 -3.65625 3.0625 -3.78125 C 3.007812 -3.914062 2.914062 -4.03125 2.78125 -4.125 C 2.644531 -4.226562 2.46875 -4.28125 2.25 -4.28125 L 1.5 -4.28125 Z M 1.5 -2.53125 "/></g></g></g><g fill="#1f2020" fill-opacity="1"><g transform="translate(100.135986, 272.258327)"><g><path d="M 0.375 -2.515625 C 0.375 -2.984375 0.488281 -3.410156 0.71875 -3.796875 C 0.957031 -4.191406 1.273438 -4.507812 1.671875 -4.75 C 2.066406 -4.988281 2.5 -5.109375 2.96875 -5.109375 C 3.425781 -5.109375 3.851562 -4.988281 4.25 -4.75 C 4.644531 -4.507812 4.957031 -4.191406 5.1875 -3.796875 C 5.425781 -3.398438 5.546875 -2.972656 5.546875 -2.515625 C 5.546875 -2.046875 5.425781 -1.613281 5.1875 -1.21875 C 4.957031 -0.832031 4.644531 -0.519531 4.25 -0.28125 C 3.851562 -0.0507812 3.425781 0.0625 2.96875 0.0625 C 2.5 0.0625 2.066406 -0.0507812 1.671875 -0.28125 C 1.273438 -0.507812 0.957031 -0.820312 0.71875 -1.21875 C 0.488281 -1.613281 0.375 -2.046875 0.375 -2.515625 Z M 1.21875 -2.515625 C 1.21875 -2.191406 1.296875 -1.890625 1.453125 -1.609375 C 1.609375 -1.335938 1.820312 -1.117188 2.09375 -0.953125 C 2.363281 -0.796875 2.660156 -0.71875 2.984375 -0.71875 C 3.304688 -0.71875 3.597656 -0.796875 3.859375 -0.953125 C 4.117188 -1.117188 4.328125 -1.335938 4.484375 -1.609375 C 4.640625 -1.890625 4.71875 -2.191406 4.71875 -2.515625 C 4.71875 -2.847656 4.640625 -3.148438 4.484375 -3.421875 C 4.328125 -3.703125 4.113281 -3.921875 3.84375 -4.078125 C 3.570312 -4.242188 3.28125 -4.328125 2.96875 -4.328125 C 2.644531 -4.328125 2.347656 -4.242188 2.078125 -4.078125 C 1.804688 -3.921875 1.59375 -3.703125 1.4375 -3.421875 C 1.289062 -3.148438 1.21875 -2.847656 1.21875 -2.515625 Z M 1.21875 -2.515625 "/></g></g></g><g fill="#1f2020" fill-opacity="1"><g transform="translate(106.894838, 272.258327)"><g><path d="M 3.71875 -5.046875 L 3.71875 -4.28125 L 2.40625 -4.28125 L 2.40625 0 L 1.609375 0 L 1.609375 -4.28125 L 0.328125 -4.28125 L 0.328125 -5.046875 Z M 3.71875 -5.046875 "/></g></g></g><g fill="#1f2020" fill-opacity="1"><g transform="translate(111.766205, 272.258327)"><g><path d="M 4.046875 -5.046875 L 4.046875 -4.28125 L 1.5 -4.28125 L 1.5 -2.921875 L 3.765625 -2.921875 L 3.765625 -2.15625 L 1.5 -2.15625 L 1.5 -0.78125 L 4.140625 -0.78125 L 4.140625 0 L 0.6875 0 L 0.6875 -5.046875 Z M 4.046875 -5.046875 "/></g></g></g><g fill="#1f2020" fill-opacity="1"><g transform="translate(117.158022, 272.258327)"><g><path d="M 4.4375 -0.390625 C 4.289062 -0.285156 4.085938 -0.179688 3.828125 -0.078125 C 3.566406 0.015625 3.28125 0.0625 2.96875 0.0625 C 2.445312 0.0625 1.988281 -0.0507812 1.59375 -0.28125 C 1.207031 -0.507812 0.90625 -0.816406 0.6875 -1.203125 C 0.476562 -1.597656 0.375 -2.023438 0.375 -2.484375 C 0.375 -2.984375 0.476562 -3.429688 0.6875 -3.828125 C 0.90625 -4.234375 1.203125 -4.546875 1.578125 -4.765625 C 1.953125 -4.992188 2.378906 -5.109375 2.859375 -5.109375 C 3.160156 -5.109375 3.4375 -5.066406 3.6875 -4.984375 C 3.9375 -4.910156 4.160156 -4.8125 4.359375 -4.6875 L 4.03125 -3.9375 C 3.65625 -4.195312 3.273438 -4.328125 2.890625 -4.328125 C 2.597656 -4.328125 2.320312 -4.242188 2.0625 -4.078125 C 1.800781 -3.921875 1.59375 -3.707031 1.4375 -3.4375 C 1.289062 -3.164062 1.21875 -2.863281 1.21875 -2.53125 C 1.21875 -2.1875 1.285156 -1.875 1.421875 -1.59375 C 1.566406 -1.320312 1.769531 -1.109375 2.03125 -0.953125 C 2.289062 -0.796875 2.59375 -0.71875 2.9375 -0.71875 C 3.1875 -0.71875 3.410156 -0.753906 3.609375 -0.828125 C 3.804688 -0.898438 3.96875 -0.992188 4.09375 -1.109375 Z M 4.4375 -0.390625 "/></g></g></g><g fill="#1f2020" fill-opacity="1"><g transform="translate(122.806589, 272.258327)"><g><path d="M 3.71875 -5.046875 L 3.71875 -4.28125 L 2.40625 -4.28125 L 2.40625 0 L 1.609375 0 L 1.609375 -4.28125 L 0.328125 -4.28125 L 0.328125 -5.046875 Z M 3.71875 -5.046875 "/></g></g></g><g fill="#1f2020" fill-opacity="1"><g transform="translate(127.677958, 272.258327)"><g><path d="M 1.5 -5.046875 L 1.5 0 L 0.6875 0 L 0.6875 -5.046875 Z M 1.5 -5.046875 "/></g></g></g><g fill="#1f2020" fill-opacity="1"><g transform="translate(130.703482, 272.258327)"><g><path d="M 5.15625 -5.046875 L 5.15625 0.1875 L 5.140625 0.1875 L 1.484375 -3.34375 L 1.515625 0 L 0.6875 0 L 0.6875 -5.21875 L 0.734375 -5.21875 L 4.359375 -1.65625 L 4.34375 -5.046875 Z M 5.15625 -5.046875 "/></g></g></g><g fill="#1f2020" fill-opacity="1"><g transform="translate(137.386, 272.258327)"><g><path d="M 4.703125 -0.46875 C 4.566406 -0.332031 4.328125 -0.207031 3.984375 -0.09375 C 3.640625 0.0078125 3.320312 0.0625 3.03125 0.0625 C 2.5 0.0625 2.03125 -0.0390625 1.625 -0.25 C 1.226562 -0.46875 0.921875 -0.765625 0.703125 -1.140625 C 0.484375 -1.515625 0.375 -1.9375 0.375 -2.40625 C 0.375 -2.976562 0.488281 -3.46875 0.71875 -3.875 C 0.957031 -4.28125 1.273438 -4.585938 1.671875 -4.796875 C 2.066406 -5.003906 2.5 -5.109375 2.96875 -5.109375 C 3.257812 -5.109375 3.535156 -5.070312 3.796875 -5 C 4.066406 -4.9375 4.300781 -4.847656 4.5 -4.734375 L 4.234375 -3.984375 C 4.097656 -4.066406 3.914062 -4.140625 3.6875 -4.203125 C 3.457031 -4.265625 3.253906 -4.296875 3.078125 -4.296875 C 2.503906 -4.296875 2.050781 -4.132812 1.71875 -3.8125 C 1.382812 -3.5 1.21875 -3.054688 1.21875 -2.484375 C 1.21875 -2.140625 1.289062 -1.832031 1.4375 -1.5625 C 1.59375 -1.300781 1.8125 -1.097656 2.09375 -0.953125 C 2.375 -0.816406 2.695312 -0.75 3.0625 -0.75 C 3.21875 -0.75 3.367188 -0.765625 3.515625 -0.796875 C 3.671875 -0.828125 3.800781 -0.867188 3.90625 -0.921875 L 3.90625 -1.765625 L 2.953125 -1.765625 L 2.953125 -2.546875 L 4.703125 -2.546875 Z M 4.703125 -0.46875 "/></g></g></g><g fill="#1f2020" fill-opacity="1"><g transform="translate(143.457867, 272.258327)"><g/></g></g><g fill="#1f2020" fill-opacity="1"><g transform="translate(146.504206, 272.258327)"><g><path d="M 4.796875 0 L 3.984375 0 L 3.984375 -2.15625 L 1.5 -2.15625 L 1.5 0 L 0.6875 0 L 0.6875 -5.046875 L 1.5 -5.046875 L 1.5 -2.921875 L 3.984375 -2.921875 L 3.984375 -5.046875 L 4.796875 -5.046875 Z M 4.796875 0 "/></g></g></g><g fill="#1f2020" fill-opacity="1"><g transform="translate(152.825889, 272.258327)"><g><path d="M 0.375 -2.515625 C 0.375 -2.984375 0.488281 -3.410156 0.71875 -3.796875 C 0.957031 -4.191406 1.273438 -4.507812 1.671875 -4.75 C 2.066406 -4.988281 2.5 -5.109375 2.96875 -5.109375 C 3.425781 -5.109375 3.851562 -4.988281 4.25 -4.75 C 4.644531 -4.507812 4.957031 -4.191406 5.1875 -3.796875 C 5.425781 -3.398438 5.546875 -2.972656 5.546875 -2.515625 C 5.546875 -2.046875 5.425781 -1.613281 5.1875 -1.21875 C 4.957031 -0.832031 4.644531 -0.519531 4.25 -0.28125 C 3.851562 -0.0507812 3.425781 0.0625 2.96875 0.0625 C 2.5 0.0625 2.066406 -0.0507812 1.671875 -0.28125 C 1.273438 -0.507812 0.957031 -0.820312 0.71875 -1.21875 C 0.488281 -1.613281 0.375 -2.046875 0.375 -2.515625 Z M 1.21875 -2.515625 C 1.21875 -2.191406 1.296875 -1.890625 1.453125 -1.609375 C 1.609375 -1.335938 1.820312 -1.117188 2.09375 -0.953125 C 2.363281 -0.796875 2.660156 -0.71875 2.984375 -0.71875 C 3.304688 -0.71875 3.597656 -0.796875 3.859375 -0.953125 C 4.117188 -1.117188 4.328125 -1.335938 4.484375 -1.609375 C 4.640625 -1.890625 4.71875 -2.191406 4.71875 -2.515625 C 4.71875 -2.847656 4.640625 -3.148438 4.484375 -3.421875 C 4.328125 -3.703125 4.113281 -3.921875 3.84375 -4.078125 C 3.570312 -4.242188 3.28125 -4.328125 2.96875 -4.328125 C 2.644531 -4.328125 2.347656 -4.242188 2.078125 -4.078125 C 1.804688 -3.921875 1.59375 -3.703125 1.4375 -3.421875 C 1.289062 -3.148438 1.21875 -2.847656 1.21875 -2.515625 Z M 1.21875 -2.515625 "/></g></g></g><g fill="#1f2020" fill-opacity="1"><g transform="translate(159.584741, 272.258327)"><g><path d="M 5.796875 -5.234375 L 5.796875 0 L 4.984375 0 L 4.984375 -2.921875 L 3.21875 -0.40625 L 3.203125 -0.40625 L 1.484375 -2.796875 L 1.484375 0 L 0.6875 0 L 0.6875 -5.234375 L 0.703125 -5.234375 L 3.21875 -1.671875 L 5.78125 -5.234375 Z M 5.796875 -5.234375 "/></g></g></g><g fill="#1f2020" fill-opacity="1"><g transform="translate(166.898732, 272.258327)"><g><path d="M 4.046875 -5.046875 L 4.046875 -4.28125 L 1.5 -4.28125 L 1.5 -2.921875 L 3.765625 -2.921875 L 3.765625 -2.15625 L 1.5 -2.15625 L 1.5 -0.78125 L 4.140625 -0.78125 L 4.140625 0 L 0.6875 0 L 0.6875 -5.046875 Z M 4.046875 -5.046875 "/></g></g></g><g fill="#1f2020" fill-opacity="1"><g transform="translate(172.290544, 272.258327)"><g><path d="M 3.34375 -4.03125 C 2.90625 -4.25 2.519531 -4.359375 2.1875 -4.359375 C 1.9375 -4.359375 1.738281 -4.300781 1.59375 -4.1875 C 1.445312 -4.082031 1.375 -3.929688 1.375 -3.734375 C 1.375 -3.546875 1.460938 -3.390625 1.640625 -3.265625 C 1.828125 -3.140625 2.085938 -3.015625 2.421875 -2.890625 C 2.660156 -2.796875 2.867188 -2.691406 3.046875 -2.578125 C 3.234375 -2.472656 3.382812 -2.320312 3.5 -2.125 C 3.613281 -1.925781 3.671875 -1.679688 3.671875 -1.390625 C 3.671875 -1.117188 3.601562 -0.875 3.46875 -0.65625 C 3.332031 -0.4375 3.132812 -0.257812 2.875 -0.125 C 2.625 0 2.328125 0.0625 1.984375 0.0625 C 1.679688 0.0625 1.378906 0.015625 1.078125 -0.078125 C 0.785156 -0.179688 0.523438 -0.316406 0.296875 -0.484375 L 0.65625 -1.109375 C 0.820312 -0.984375 1.019531 -0.875 1.25 -0.78125 C 1.488281 -0.695312 1.707031 -0.65625 1.90625 -0.65625 C 2.15625 -0.65625 2.367188 -0.710938 2.546875 -0.828125 C 2.734375 -0.953125 2.828125 -1.132812 2.828125 -1.375 C 2.828125 -1.570312 2.75 -1.734375 2.59375 -1.859375 C 2.4375 -1.992188 2.222656 -2.113281 1.953125 -2.21875 C 1.660156 -2.320312 1.421875 -2.425781 1.234375 -2.53125 C 1.046875 -2.632812 0.882812 -2.78125 0.75 -2.96875 C 0.613281 -3.15625 0.546875 -3.390625 0.546875 -3.671875 C 0.546875 -4.085938 0.679688 -4.421875 0.953125 -4.671875 C 1.234375 -4.921875 1.601562 -5.054688 2.0625 -5.078125 C 2.394531 -5.078125 2.6875 -5.035156 2.9375 -4.953125 C 3.195312 -4.878906 3.4375 -4.773438 3.65625 -4.640625 Z M 3.34375 -4.03125 "/></g></g></g><g fill="#1f2020" fill-opacity="1"><g transform="translate(177.154972, 272.258327)"><g><path d="M 0.609375 0.84375 L -0.015625 0.84375 L 0.15625 0.359375 C 0.363281 -0.203125 0.484375 -0.523438 0.515625 -0.609375 L 1.21875 -0.609375 Z M 0.609375 0.84375 "/></g></g></g><g fill="#1f2020" fill-opacity="1"><g transform="translate(179.396348, 272.258327)"><g/></g></g><g fill="#1f2020" fill-opacity="1"><g transform="translate(182.442682, 272.258327)"><g><path d="M 4.046875 -5.046875 L 4.046875 -4.28125 L 1.5 -4.28125 L 1.5 -2.921875 L 3.765625 -2.921875 L 3.765625 -2.15625 L 1.5 -2.15625 L 1.5 -0.78125 L 4.140625 -0.78125 L 4.140625 0 L 0.6875 0 L 0.6875 -5.046875 Z M 4.046875 -5.046875 "/></g></g></g><g fill="#1f2020" fill-opacity="1"><g transform="translate(187.834494, 272.258327)"><g><path d="M 1.5 -5.046875 L 1.5 -0.78125 L 4 -0.78125 L 4 0 L 0.6875 0 L 0.6875 -5.046875 Z M 1.5 -5.046875 "/></g></g></g><g fill="#1f2020" fill-opacity="1"><g transform="translate(193.032008, 272.258327)"><g><path d="M 4.046875 -5.046875 L 4.046875 -4.28125 L 1.5 -4.28125 L 1.5 -2.921875 L 3.765625 -2.921875 L 3.765625 -2.15625 L 1.5 -2.15625 L 1.5 -0.78125 L 4.140625 -0.78125 L 4.140625 0 L 0.6875 0 L 0.6875 -5.046875 Z M 4.046875 -5.046875 "/></g></g></g><g fill="#1f2020" fill-opacity="1"><g transform="translate(198.42382, 272.258327)"><g><path d="M 4.78125 -5.046875 L 2.515625 0.234375 L 0.25 -5.046875 L 1.21875 -5.046875 L 2.546875 -1.734375 L 3.828125 -5.046875 Z M 4.78125 -5.046875 "/></g></g></g><g fill="#1f2020" fill-opacity="1"><g transform="translate(204.287505, 272.258327)"><g><path d="M 3.28125 -1.1875 L 1.453125 -1.1875 L 0.96875 0 L 0.171875 0 L 2.40625 -5.265625 L 2.453125 -5.265625 L 4.6875 0 L 3.75 0 Z M 3.015625 -1.875 L 2.390625 -3.46875 L 1.734375 -1.875 Z M 3.015625 -1.875 "/></g></g></g><g fill="#1f2020" fill-opacity="1"><g transform="translate(209.963828, 272.258327)"><g><path d="M 3.71875 -5.046875 L 3.71875 -4.28125 L 2.40625 -4.28125 L 2.40625 0 L 1.609375 0 L 1.609375 -4.28125 L 0.328125 -4.28125 L 0.328125 -5.046875 Z M 3.71875 -5.046875 "/></g></g></g><g fill="#1f2020" fill-opacity="1"><g transform="translate(214.835192, 272.258327)"><g><path d="M 1.5 -5.046875 L 1.5 0 L 0.6875 0 L 0.6875 -5.046875 Z M 1.5 -5.046875 "/></g></g></g><g fill="#1f2020" fill-opacity="1"><g transform="translate(217.860711, 272.258327)"><g><path d="M 5.15625 -5.046875 L 5.15625 0.1875 L 5.140625 0.1875 L 1.484375 -3.34375 L 1.515625 0 L 0.6875 0 L 0.6875 -5.21875 L 0.734375 -5.21875 L 4.359375 -1.65625 L 4.34375 -5.046875 Z M 5.15625 -5.046875 "/></g></g></g><g fill="#1f2020" fill-opacity="1"><g transform="translate(224.543225, 272.258327)"><g><path d="M 4.703125 -0.46875 C 4.566406 -0.332031 4.328125 -0.207031 3.984375 -0.09375 C 3.640625 0.0078125 3.320312 0.0625 3.03125 0.0625 C 2.5 0.0625 2.03125 -0.0390625 1.625 -0.25 C 1.226562 -0.46875 0.921875 -0.765625 0.703125 -1.140625 C 0.484375 -1.515625 0.375 -1.9375 0.375 -2.40625 C 0.375 -2.976562 0.488281 -3.46875 0.71875 -3.875 C 0.957031 -4.28125 1.273438 -4.585938 1.671875 -4.796875 C 2.066406 -5.003906 2.5 -5.109375 2.96875 -5.109375 C 3.257812 -5.109375 3.535156 -5.070312 3.796875 -5 C 4.066406 -4.9375 4.300781 -4.847656 4.5 -4.734375 L 4.234375 -3.984375 C 4.097656 -4.066406 3.914062 -4.140625 3.6875 -4.203125 C 3.457031 -4.265625 3.253906 -4.296875 3.078125 -4.296875 C 2.503906 -4.296875 2.050781 -4.132812 1.71875 -3.8125 C 1.382812 -3.5 1.21875 -3.054688 1.21875 -2.484375 C 1.21875 -2.140625 1.289062 -1.832031 1.4375 -1.5625 C 1.59375 -1.300781 1.8125 -1.097656 2.09375 -0.953125 C 2.375 -0.816406 2.695312 -0.75 3.0625 -0.75 C 3.21875 -0.75 3.367188 -0.765625 3.515625 -0.796875 C 3.671875 -0.828125 3.800781 -0.867188 3.90625 -0.921875 L 3.90625 -1.765625 L 2.953125 -1.765625 L 2.953125 -2.546875 L 4.703125 -2.546875 Z M 4.703125 -0.46875 "/></g></g></g><g fill="#1f2020" fill-opacity="1"><g transform="translate(230.615088, 272.258327)"><g/></g></g><g fill="#1f2020" fill-opacity="1"><g transform="translate(233.661422, 272.258327)"><g><path d="M 3.34375 -4.03125 C 2.90625 -4.25 2.519531 -4.359375 2.1875 -4.359375 C 1.9375 -4.359375 1.738281 -4.300781 1.59375 -4.1875 C 1.445312 -4.082031 1.375 -3.929688 1.375 -3.734375 C 1.375 -3.546875 1.460938 -3.390625 1.640625 -3.265625 C 1.828125 -3.140625 2.085938 -3.015625 2.421875 -2.890625 C 2.660156 -2.796875 2.867188 -2.691406 3.046875 -2.578125 C 3.234375 -2.472656 3.382812 -2.320312 3.5 -2.125 C 3.613281 -1.925781 3.671875 -1.679688 3.671875 -1.390625 C 3.671875 -1.117188 3.601562 -0.875 3.46875 -0.65625 C 3.332031 -0.4375 3.132812 -0.257812 2.875 -0.125 C 2.625 0 2.328125 0.0625 1.984375 0.0625 C 1.679688 0.0625 1.378906 0.015625 1.078125 -0.078125 C 0.785156 -0.179688 0.523438 -0.316406 0.296875 -0.484375 L 0.65625 -1.109375 C 0.820312 -0.984375 1.019531 -0.875 1.25 -0.78125 C 1.488281 -0.695312 1.707031 -0.65625 1.90625 -0.65625 C 2.15625 -0.65625 2.367188 -0.710938 2.546875 -0.828125 C 2.734375 -0.953125 2.828125 -1.132812 2.828125 -1.375 C 2.828125 -1.570312 2.75 -1.734375 2.59375 -1.859375 C 2.4375 -1.992188 2.222656 -2.113281 1.953125 -2.21875 C 1.660156 -2.320312 1.421875 -2.425781 1.234375 -2.53125 C 1.046875 -2.632812 0.882812 -2.78125 0.75 -2.96875 C 0.613281 -3.15625 0.546875 -3.390625 0.546875 -3.671875 C 0.546875 -4.085938 0.679688 -4.421875 0.953125 -4.671875 C 1.234375 -4.921875 1.601562 -5.054688 2.0625 -5.078125 C 2.394531 -5.078125 2.6875 -5.035156 2.9375 -4.953125 C 3.195312 -4.878906 3.4375 -4.773438 3.65625 -4.640625 Z M 3.34375 -4.03125 "/></g></g></g><g fill="#1f2020" fill-opacity="1"><g transform="translate(238.525859, 272.258327)"><g><path d="M 3.71875 -5.046875 L 3.71875 -4.28125 L 2.40625 -4.28125 L 2.40625 0 L 1.609375 0 L 1.609375 -4.28125 L 0.328125 -4.28125 L 0.328125 -5.046875 Z M 3.71875 -5.046875 "/></g></g></g><g fill="#1f2020" fill-opacity="1"><g transform="translate(243.397224, 272.258327)"><g><path d="M 3.28125 -1.1875 L 1.453125 -1.1875 L 0.96875 0 L 0.171875 0 L 2.40625 -5.265625 L 2.453125 -5.265625 L 4.6875 0 L 3.75 0 Z M 3.015625 -1.875 L 2.390625 -3.46875 L 1.734375 -1.875 Z M 3.015625 -1.875 "/></g></g></g><g fill="#1f2020" fill-opacity="1"><g transform="translate(249.073555, 272.258327)"><g><path d="M 5.15625 -5.046875 L 5.15625 0.1875 L 5.140625 0.1875 L 1.484375 -3.34375 L 1.515625 0 L 0.6875 0 L 0.6875 -5.21875 L 0.734375 -5.21875 L 4.359375 -1.65625 L 4.34375 -5.046875 Z M 5.15625 -5.046875 "/></g></g></g><g fill="#1f2020" fill-opacity="1"><g transform="translate(255.75607, 272.258327)"><g><path d="M 0.6875 -5.046875 L 2.125 -5.046875 C 2.757812 -5.046875 3.285156 -4.921875 3.703125 -4.671875 C 4.117188 -4.421875 4.421875 -4.097656 4.609375 -3.703125 C 4.796875 -3.316406 4.890625 -2.898438 4.890625 -2.453125 C 4.890625 -1.960938 4.773438 -1.53125 4.546875 -1.15625 C 4.316406 -0.789062 4.007812 -0.503906 3.625 -0.296875 C 3.238281 -0.0976562 2.820312 0 2.375 0 L 0.6875 0 Z M 2.234375 -0.78125 C 2.585938 -0.78125 2.898438 -0.84375 3.171875 -0.96875 C 3.453125 -1.101562 3.671875 -1.300781 3.828125 -1.5625 C 3.984375 -1.832031 4.0625 -2.148438 4.0625 -2.515625 C 4.0625 -2.910156 3.972656 -3.238281 3.796875 -3.5 C 3.628906 -3.769531 3.414062 -3.96875 3.15625 -4.09375 C 2.894531 -4.21875 2.628906 -4.28125 2.359375 -4.28125 L 1.5 -4.28125 L 1.5 -0.78125 Z M 2.234375 -0.78125 "/></g></g></g><g fill="#1f2020" fill-opacity="1"><g transform="translate(261.862627, 272.258327)"><g><path d="M 3.28125 -1.1875 L 1.453125 -1.1875 L 0.96875 0 L 0.171875 0 L 2.40625 -5.265625 L 2.453125 -5.265625 L 4.6875 0 L 3.75 0 Z M 3.015625 -1.875 L 2.390625 -3.46875 L 1.734375 -1.875 Z M 3.015625 -1.875 "/></g></g></g><g fill="#1f2020" fill-opacity="1"><g transform="translate(267.538958, 272.258327)"><g><path d="M 3.453125 0 L 2.3125 -1.75 L 1.5 -1.75 L 1.5 0 L 0.6875 0 L 0.6875 -5.046875 L 2.109375 -5.046875 C 2.679688 -5.046875 3.132812 -4.898438 3.46875 -4.609375 C 3.8125 -4.328125 3.984375 -3.929688 3.984375 -3.421875 C 3.984375 -3.117188 3.914062 -2.832031 3.78125 -2.5625 C 3.65625 -2.300781 3.445312 -2.097656 3.15625 -1.953125 L 4.390625 0 Z M 1.5 -2.53125 L 2.234375 -2.53125 C 2.554688 -2.53125 2.789062 -2.617188 2.9375 -2.796875 C 3.082031 -2.972656 3.15625 -3.175781 3.15625 -3.40625 C 3.15625 -3.53125 3.125 -3.65625 3.0625 -3.78125 C 3.007812 -3.914062 2.914062 -4.03125 2.78125 -4.125 C 2.644531 -4.226562 2.46875 -4.28125 2.25 -4.28125 L 1.5 -4.28125 Z M 1.5 -2.53125 "/></g></g></g><g fill="#1f2020" fill-opacity="1"><g transform="translate(273.014039, 272.258327)"><g><path d="M 0.6875 -5.046875 L 2.125 -5.046875 C 2.757812 -5.046875 3.285156 -4.921875 3.703125 -4.671875 C 4.117188 -4.421875 4.421875 -4.097656 4.609375 -3.703125 C 4.796875 -3.316406 4.890625 -2.898438 4.890625 -2.453125 C 4.890625 -1.960938 4.773438 -1.53125 4.546875 -1.15625 C 4.316406 -0.789062 4.007812 -0.503906 3.625 -0.296875 C 3.238281 -0.0976562 2.820312 0 2.375 0 L 0.6875 0 Z M 2.234375 -0.78125 C 2.585938 -0.78125 2.898438 -0.84375 3.171875 -0.96875 C 3.453125 -1.101562 3.671875 -1.300781 3.828125 -1.5625 C 3.984375 -1.832031 4.0625 -2.148438 4.0625 -2.515625 C 4.0625 -2.910156 3.972656 -3.238281 3.796875 -3.5 C 3.628906 -3.769531 3.414062 -3.96875 3.15625 -4.09375 C 2.894531 -4.21875 2.628906 -4.28125 2.359375 -4.28125 L 1.5 -4.28125 L 1.5 -0.78125 Z M 2.234375 -0.78125 "/></g></g></g><g fill="#1f2020" fill-opacity="1"><g transform="translate(279.120596, 272.258327)"><g><path d="M 3.34375 -4.03125 C 2.90625 -4.25 2.519531 -4.359375 2.1875 -4.359375 C 1.9375 -4.359375 1.738281 -4.300781 1.59375 -4.1875 C 1.445312 -4.082031 1.375 -3.929688 1.375 -3.734375 C 1.375 -3.546875 1.460938 -3.390625 1.640625 -3.265625 C 1.828125 -3.140625 2.085938 -3.015625 2.421875 -2.890625 C 2.660156 -2.796875 2.867188 -2.691406 3.046875 -2.578125 C 3.234375 -2.472656 3.382812 -2.320312 3.5 -2.125 C 3.613281 -1.925781 3.671875 -1.679688 3.671875 -1.390625 C 3.671875 -1.117188 3.601562 -0.875 3.46875 -0.65625 C 3.332031 -0.4375 3.132812 -0.257812 2.875 -0.125 C 2.625 0 2.328125 0.0625 1.984375 0.0625 C 1.679688 0.0625 1.378906 0.015625 1.078125 -0.078125 C 0.785156 -0.179688 0.523438 -0.316406 0.296875 -0.484375 L 0.65625 -1.109375 C 0.820312 -0.984375 1.019531 -0.875 1.25 -0.78125 C 1.488281 -0.695312 1.707031 -0.65625 1.90625 -0.65625 C 2.15625 -0.65625 2.367188 -0.710938 2.546875 -0.828125 C 2.734375 -0.953125 2.828125 -1.132812 2.828125 -1.375 C 2.828125 -1.570312 2.75 -1.734375 2.59375 -1.859375 C 2.4375 -1.992188 2.222656 -2.113281 1.953125 -2.21875 C 1.660156 -2.320312 1.421875 -2.425781 1.234375 -2.53125 C 1.046875 -2.632812 0.882812 -2.78125 0.75 -2.96875 C 0.613281 -3.15625 0.546875 -3.390625 0.546875 -3.671875 C 0.546875 -4.085938 0.679688 -4.421875 0.953125 -4.671875 C 1.234375 -4.921875 1.601562 -5.054688 2.0625 -5.078125 C 2.394531 -5.078125 2.6875 -5.035156 2.9375 -4.953125 C 3.195312 -4.878906 3.4375 -4.773438 3.65625 -4.640625 Z M 3.34375 -4.03125 "/></g></g></g><g fill="#1f2020" fill-opacity="1"><g transform="translate(283.985025, 272.258327)"><g><path d="M 1.03125 -5.28125 L 1.03125 -1.328125 L 0.34375 -1.328125 L 0.34375 -5.28125 Z M 0.703125 0.015625 C 0.566406 0.015625 0.453125 -0.0195312 0.359375 -0.09375 C 0.273438 -0.164062 0.234375 -0.265625 0.234375 -0.390625 C 0.234375 -0.515625 0.273438 -0.617188 0.359375 -0.703125 C 0.453125 -0.785156 0.566406 -0.828125 0.703125 -0.828125 C 0.835938 -0.828125 0.945312 -0.785156 1.03125 -0.703125 C 1.125 -0.617188 1.171875 -0.515625 1.171875 -0.390625 C 1.171875 -0.265625 1.128906 -0.164062 1.046875 -0.09375 C 0.960938 -0.0195312 0.847656 0.015625 0.703125 0.015625 Z M 0.703125 0.015625 "/></g></g></g></svg>